<svg width="109" height="35" viewBox="0 0 109 35" fill="none" xmlns="http://www.w3.org/2000/svg">
<path d="M20.52 0.735962L19.704 6.35196H7.992V14.32H18.216V19.84H7.992V28.336H20.52V34H0.119995V0.735962H20.52Z" fill="black"/>
<path d="M33.9832 7.69596C35.8072 7.69596 37.5192 7.96796 39.1192 8.51196C40.7192 9.05596 42.1272 9.82396 43.3432 10.816L40.5592 15.088C38.4792 13.776 36.3832 13.12 34.2712 13.12C33.2792 13.12 32.5112 13.296 31.9672 13.648C31.4552 13.968 31.1992 14.432 31.1992 15.04C31.1992 15.52 31.3112 15.92 31.5352 16.24C31.7912 16.528 32.2872 16.832 33.0232 17.152C33.7592 17.472 34.8952 17.856 36.4312 18.304C39.0872 19.072 41.0552 20.08 42.3352 21.328C43.6472 22.544 44.3032 24.24 44.3032 26.416C44.3032 28.144 43.8072 29.648 42.8152 30.928C41.8232 32.176 40.4632 33.136 38.7352 33.808C37.0072 34.48 35.0872 34.816 32.9752 34.816C30.8312 34.816 28.8312 34.48 26.9752 33.808C25.1512 33.136 23.5992 32.208 22.3192 31.024L26.0152 26.896C28.1592 28.56 30.4152 29.392 32.7832 29.392C33.9352 29.392 34.8312 29.184 35.4712 28.768C36.1432 28.352 36.4792 27.76 36.4792 26.992C36.4792 26.384 36.3512 25.904 36.0952 25.552C35.8392 25.2 35.3432 24.88 34.6072 24.592C33.8712 24.272 32.7032 23.888 31.1032 23.44C28.5752 22.704 26.6872 21.68 25.4392 20.368C24.1912 19.056 23.5672 17.424 23.5672 15.472C23.5672 14 23.9832 12.688 24.8152 11.536C25.6792 10.352 26.8952 9.42396 28.4632 8.75196C30.0632 8.04796 31.9032 7.69596 33.9832 7.69596Z" fill="black"/>
<path d="M64.1944 32.8C63.2664 33.44 62.1784 33.936 60.9304 34.288C59.7144 34.64 58.4984 34.816 57.2824 34.816C51.7144 34.784 48.9304 31.712 48.9304 25.6V13.792H45.3304V8.51196H48.9304V2.99196L56.5144 2.12796V8.51196H62.3704L61.5544 13.792H56.5144V25.504C56.5144 26.688 56.7064 27.536 57.0904 28.048C57.4744 28.56 58.0824 28.816 58.9144 28.816C59.7784 28.816 60.6904 28.544 61.6504 28L64.1944 32.8Z" fill="black"/>
<path d="M88.1062 20.752C88.1062 21.808 88.0582 22.72 87.9622 23.488H72.1702C72.4262 25.632 73.0342 27.136 73.9942 28C74.9542 28.864 76.2822 29.296 77.9782 29.296C79.0022 29.296 79.9942 29.12 80.9542 28.768C81.9142 28.384 82.9542 27.808 84.0742 27.04L87.1942 31.264C84.2182 33.632 80.9062 34.816 77.2582 34.816C73.1302 34.816 69.9622 33.6 67.7542 31.168C65.5462 28.736 64.4422 25.472 64.4422 21.376C64.4422 18.784 64.9062 16.464 65.8342 14.416C66.7622 12.336 68.1222 10.704 69.9142 9.51996C71.7062 8.30396 73.8502 7.69596 76.3462 7.69596C80.0262 7.69596 82.9062 8.84796 84.9862 11.152C87.0662 13.456 88.1062 16.656 88.1062 20.752ZM80.6662 18.592C80.6022 14.688 79.2262 12.736 76.5382 12.736C75.2262 12.736 74.2022 13.216 73.4662 14.176C72.7622 15.136 72.3302 16.72 72.1702 18.928H80.6662V18.592Z" fill="black"/>
<path d="M106.191 7.79196C107.119 7.79196 107.967 7.90396 108.735 8.12796L107.535 15.472C106.575 15.248 105.807 15.136 105.231 15.136C103.727 15.136 102.575 15.664 101.775 16.72C101.007 17.744 100.399 19.296 99.9506 21.376V34H92.3666V8.51196H98.9906L99.6146 13.456C100.191 11.696 101.055 10.32 102.207 9.32796C103.391 8.30396 104.719 7.79196 106.191 7.79196Z" fill="black"/>
</svg>
